<?xml version="1.0" encoding="UTF-8"?>
<svg xmlns="http://www.w3.org/2000/svg" width="133.94" height="24.00" viewBox="0 0 133.94 24.00">
  <g fill="#F13D4F" transform="scale(0.015697)"><path d="M1412.33 1012.47L1253.93 854.067C1232.07 832.203 1217.67 803.4 1216.07 772.999C1213.93 737.264 1226.74 703.135 1251.8 678.067L1271.54 658.332C1287.01 642.863 1311.54 642.863 1326.47 658.332C1355.8 687.666 1372.87 726.067 1371.8 767.666C1371.8 780.468 1369.67 793.264 1366.47 804.999C1363.27 816.197 1366.47 827.931 1374.47 836.468L1458.74 920.734C1468.33 930.333 1485.4 928.203 1492.33 915.932C1519 869.53 1532.87 816.197 1531.8 761.265C1530.74 679.666 1496.07 601.798 1438.47 543.665L1154.74 259.932C1139.27 244.462 1139.27 219.932 1154.74 205L1162.74 197C1215.54 144.197 1304.07 150.598 1348.34 214.598C1358.47 229.53 1365.94 246.598 1368.07 264.734C1370.21 278.068 1367 297.802 1364.34 312.204C1362.2 322.339 1365.94 333.006 1372.87 341.006L1460.34 426.34C1469.94 435.939 1487 433.808 1493.94 422.074C1517.94 380.475 1530.74 332.475 1530.74 282.874C1530.74 207.677 1501.41 136.741 1448.6 83.9407C1338.2 -25.9233 1159.54 -25.9233 1050.2 83.9407L853.937 280.207C805.937 328.207 728.073 328.207 679.537 280.207L660.339 261.01C644.87 245.541 644.87 221.01 660.339 206.078L663.006 203.411C691.809 174.609 729.673 160.214 767.537 160.214C780.87 160.214 794.734 162.35 807.537 166.079C818.735 169.276 830.469 166.079 838.469 158.079L922.734 73.8132C932.87 63.6778 930.203 46.6159 917.932 40.2146C800.599 -25.3841 649.132 -8.85343 549.399 90.8812L518.997 121.283L405.935 232.736L339.804 298.867L262.471 376.736C247.001 392.205 222.471 392.205 207.539 376.736L199.539 368.736C171.273 340.471 158.471 301.001 166.471 260.471C169.669 243.94 176.07 228.471 185.668 214.607C209.137 181.008 245.933 162.341 285.403 162.341C295.002 162.341 304.6 163.409 314.205 165.539C324.872 168.206 336.607 165.008 344.607 157.539L429.409 72.7364C439.008 63.1375 436.878 46.0698 425.144 39.1378C383.534 15.1378 335.534 2.3351 285.93 2.3351C210.733 2.3351 139.797 31.6684 86.997 84.4711C33.6637 137.274 3.79971 207.668 3.79971 282.338C3.79971 357.007 33.133 428.471 85.9357 481.271L281.669 677.004C329.669 725.004 329.669 802.868 281.669 851.404L262.472 870.602C247.002 886.071 222.472 886.071 207.54 870.602L204.873 867.935C165.941 829.003 153.138 773.534 167.009 723.402C170.207 712.204 167.009 700.47 159.009 692.47L73.6757 608.735C63.5402 598.6 46.4784 601.266 40.077 613.537C-25.5216 730.871 -8.99096 882.337 90.7437 982.071L234.21 1125.54L300.33 1191.67L377.664 1269C393.133 1284.47 393.133 1309 377.664 1323.93L369.664 1331.93C341.398 1360.2 302.466 1372.46 262.466 1365.53C245.398 1362.33 229.936 1355.93 215.534 1346.33C171.8 1315.93 155.269 1264.2 166.466 1218.33C169.133 1207.67 165.935 1195.93 158.466 1187.93L73.6637 1103.14C64.0648 1093.54 46.997 1095.67 40.065 1107.94C-21.2683 1215.14 -5.79897 1354.34 85.3984 1445.54C138.732 1498.87 209.664 1527.67 284.332 1527.67C322.196 1527.67 358.468 1520.74 392.066 1506.34C425.665 1492.48 457.134 1471.67 483.264 1445.01L676.864 1251.41C700.864 1227.41 732.333 1213.01 765.932 1213.01C799 1213.01 829.932 1225.81 853.401 1249.27L872.598 1268.47C888.068 1283.94 888.068 1308.47 872.598 1323.4C843.265 1352.73 804.864 1369.26 763.265 1368.73C750.463 1368.73 737.666 1366.6 725.932 1363.4C714.734 1360.2 703 1363.4 694.462 1371.4L610.197 1455.67C600.598 1465.26 602.728 1482.33 614.999 1489.26C661.401 1515.93 714.734 1529.8 769.666 1528.73C851.265 1527.67 929.133 1493 987.266 1435.4L1270.47 1152.2C1285.94 1136.73 1310.47 1136.73 1325.4 1152.2L1331.26 1158.07C1378.73 1205.53 1380.86 1284.47 1333.4 1331.4C1310.47 1353.8 1280.06 1366.6 1248.06 1366.6C1238.47 1366.6 1228.87 1365.53 1219.26 1363.4C1208.6 1360.73 1196.86 1363.93 1188.86 1371.4L1104.06 1456.2C1094.46 1465.8 1096.59 1482.87 1108.86 1489.8C1216.06 1551.13 1355.26 1535.66 1446.46 1444.47C1556.32 1334.6 1556.32 1155.93 1446.46 1046.6L1412.33 1012.47ZM1061.93 1136.73C1035.8 1162.87 993.668 1162.87 967.532 1136.73C914.199 1083.4 843.267 1053.54 766.999 1053.54C691.264 1053.54 619.799 1083.4 566.465 1136.73C540.329 1162.87 498.2 1162.87 472.064 1136.73L395.261 1059.93C369.125 1033.79 369.125 991.664 395.261 965.528C506.193 854.596 506.193 675.395 395.261 564.462C369.125 538.326 369.125 496.196 395.261 470.06L472.064 393.258C498.2 367.122 540.329 367.122 566.465 393.258C677.397 504.19 856.599 504.19 967.532 393.258C993.668 367.122 1035.8 367.122 1061.93 393.258L1138.74 470.06C1164.87 496.196 1164.87 538.326 1138.74 564.462C1085.4 617.795 1055.54 688.727 1055.54 764.995C1055.54 840.73 1085.4 912.195 1138.74 965.528C1164.87 991.664 1164.87 1033.79 1138.74 1059.93L1061.93 1136.73Z"/></g>
  <path fill="#FFFFFF" transform="translate(30.151 20.124) scale(0.022982 -0.022982)" d="M287.0 -12.0Q206.0 -12.0 152.5 11.0Q99.0 34.0 71.0 75.0Q43.0 116.0 39.0 168.0L170.0 174.0Q177.0 132.0 204.0 109.0Q231.0 86.0 288.0 86.0Q333.0 86.0 356.5 100.5Q380.0 115.0 380.0 146.0Q380.0 164.0 371.5 176.0Q363.0 188.0 338.5 197.0Q314.0 206.0 267.0 215.0Q186.0 229.0 140.0 249.5Q94.0 270.0 75.5 301.0Q57.0 332.0 57.0 378.0Q57.0 453.0 114.5 499.5Q172.0 546.0 283.0 546.0Q360.0 546.0 409.5 521.5Q459.0 497.0 484.5 456.5Q510.0 416.0 514.0 366.0L384.0 360.0Q383.0 385.0 372.0 405.0Q361.0 425.0 339.0 436.5Q317.0 448.0 281.0 448.0Q236.0 448.0 212.5 430.0Q189.0 412.0 189.0 382.0Q189.0 361.0 198.5 347.0Q208.0 333.0 231.0 324.5Q254.0 316.0 294.0 309.0Q376.0 297.0 424.0 276.0Q472.0 255.0 492.5 223.5Q513.0 192.0 513.0 148.0Q513.0 71.0 451.5 29.5Q390.0 -12.0 287.0 -12.0ZM854.0 -12.0Q774.0 -12.0 715.0 22.5Q656.0 57.0 624.0 120.0Q592.0 183.0 592.0 267.0Q592.0 351.0 624.0 413.5Q656.0 476.0 714.5 511.0Q773.0 546.0 851.0 546.0Q927.0 546.0 984.5 512.0Q1042.0 478.0 1073.0 414.0Q1104.0 350.0 1104.0 260.0V231.0H725.0Q729.0 161.0 763.5 125.5Q798.0 90.0 855.0 90.0Q898.0 90.0 926.5 109.5Q955.0 129.0 966.0 164.0L1097.0 156.0Q1075.0 78.0 1010.5 33.0Q946.0 -12.0 854.0 -12.0ZM725.0 317.0H972.0Q968.0 382.0 935.0 413.5Q902.0 445.0 851.0 445.0Q800.0 445.0 766.5 412.0Q733.0 379.0 725.0 317.0ZM1404.0 -12.0Q1336.0 -12.0 1286.5 22.0Q1237.0 56.0 1210.0 119.0Q1183.0 182.0 1183.0 267.0Q1183.0 352.0 1210.0 415.0Q1237.0 478.0 1287.0 512.0Q1337.0 546.0 1404.0 546.0Q1460.0 546.0 1502.5 523.0Q1545.0 500.0 1567.0 458.0V710.0H1695.0V0.0H1573.0L1570.0 79.0Q1548.0 36.0 1504.0 12.0Q1460.0 -12.0 1404.0 -12.0ZM1443.0 92.0Q1483.0 92.0 1510.5 112.0Q1538.0 132.0 1552.5 171.5Q1567.0 211.0 1567.0 267.0Q1567.0 324.0 1552.5 363.0Q1538.0 402.0 1510.5 422.0Q1483.0 442.0 1443.0 442.0Q1385.0 442.0 1350.5 395.5Q1316.0 349.0 1316.0 267.0Q1316.0 187.0 1350.5 139.5Q1385.0 92.0 1443.0 92.0ZM1835.0 0.0V534.0H1963.0V0.0ZM1833.0 605.0V719.0H1966.0V605.0ZM2104.0 0.0V534.0H2220.0L2224.0 403.0L2212.0 409.0Q2221.0 452.0 2243.5 482.5Q2266.0 513.0 2298.5 529.5Q2331.0 546.0 2370.0 546.0Q2438.0 546.0 2480.0 507.5Q2522.0 469.0 2533.0 402.0H2516.0Q2525.0 449.0 2547.0 480.5Q2569.0 512.0 2602.5 529.0Q2636.0 546.0 2678.0 546.0Q2733.0 546.0 2773.0 522.5Q2813.0 499.0 2834.5 454.0Q2856.0 409.0 2856.0 343.0V0.0H2728.0V310.0Q2728.0 376.0 2705.5 409.0Q2683.0 442.0 2637.0 442.0Q2606.0 442.0 2584.0 426.0Q2562.0 410.0 2550.5 379.5Q2539.0 349.0 2539.0 306.0V0.0H2420.0V306.0Q2420.0 372.0 2400.0 407.0Q2380.0 442.0 2331.0 442.0Q2300.0 442.0 2278.5 426.0Q2257.0 410.0 2244.5 379.5Q2232.0 349.0 2232.0 306.0V0.0ZM3227.0 -12.0Q3147.0 -12.0 3088.0 22.5Q3029.0 57.0 2997.0 120.0Q2965.0 183.0 2965.0 267.0Q2965.0 351.0 2997.0 413.5Q3029.0 476.0 3087.5 511.0Q3146.0 546.0 3224.0 546.0Q3300.0 546.0 3357.5 512.0Q3415.0 478.0 3446.0 414.0Q3477.0 350.0 3477.0 260.0V231.0H3098.0Q3102.0 161.0 3136.5 125.5Q3171.0 90.0 3228.0 90.0Q3271.0 90.0 3299.5 109.5Q3328.0 129.0 3339.0 164.0L3470.0 156.0Q3448.0 78.0 3383.5 33.0Q3319.0 -12.0 3227.0 -12.0ZM3098.0 317.0H3345.0Q3341.0 382.0 3308.0 413.5Q3275.0 445.0 3224.0 445.0Q3173.0 445.0 3139.5 412.0Q3106.0 379.0 3098.0 317.0ZM3587.0 0.0V534.0H3703.0L3708.0 384.0L3693.0 390.0Q3701.0 446.0 3726.0 480.0Q3751.0 514.0 3787.0 530.0Q3823.0 546.0 3866.0 546.0Q3925.0 546.0 3965.5 520.0Q4006.0 494.0 4027.0 448.5Q4048.0 403.0 4048.0 343.0V0.0H3920.0V302.0Q3920.0 347.0 3911.0 378.0Q3902.0 409.0 3881.5 425.5Q3861.0 442.0 3827.0 442.0Q3776.0 442.0 3745.5 406.0Q3715.0 370.0 3715.0 302.0V0.0ZM4402.0 0.0Q4322.0 0.0 4284.5 37.0Q4247.0 74.0 4247.0 153.0V659.0H4375.0V165.0Q4375.0 128.0 4391.0 113.5Q4407.0 99.0 4441.0 99.0H4516.0V0.0ZM4163.0 435.0V534.0H4516.0V435.0Z"/>
</svg>
